<svg id="svg" version="1.1" xmlns="http://www.w3.org/2000/svg" xmlns:xlink="http://www.w3.org/1999/xlink" width="400" height="400" viewBox="0, 0, 400,400"><g id="svgg"><path id="path0" d="M179.202 25.495 C 179.205 53.080,179.221 53.301,181.365 55.445 C 183.555 57.635,185.437 57.876,190.600 56.628 C 211.272 51.633,230.055 63.592,233.943 84.224 C 234.492 87.136,234.541 92.750,234.035 94.754 C 233.834 95.549,233.450 97.173,233.182 98.362 C 229.194 116.046,208.755 127.958,191.096 122.891 C 185.610 121.317,182.549 121.946,180.393 125.092 L 179.400 126.541 179.289 152.870 L 179.178 179.200 152.089 179.279 L 125.000 179.358 155.800 179.622 C 243.189 180.371,237.985 180.643,240.453 175.200 C 241.547 172.785,241.289 171.234,239.038 166.698 C 238.027 164.661,237.200 162.601,237.200 162.121 C 237.200 161.640,237.020 161.136,236.800 161.000 C 236.580 160.864,236.400 160.234,236.400 159.600 C 236.400 158.966,236.220 158.336,236.000 158.200 C 235.761 158.052,235.600 155.404,235.600 151.600 C 235.600 147.796,235.761 145.148,236.000 145.000 C 236.220 144.864,236.400 144.223,236.400 143.576 C 236.400 142.929,236.580 142.400,236.800 142.400 C 237.020 142.400,237.200 141.955,237.200 141.412 C 237.200 140.869,237.560 139.783,238.000 139.000 C 238.440 138.217,238.800 137.311,238.800 136.988 C 238.800 136.665,238.935 136.399,239.100 136.397 C 239.265 136.395,239.601 135.990,239.848 135.497 C 241.271 132.645,241.807 131.739,242.389 131.200 C 242.746 130.870,243.473 129.970,244.006 129.200 C 245.262 127.382,245.841 126.800,246.390 126.800 C 246.635 126.800,247.270 126.395,247.799 125.900 C 249.247 124.546,249.757 124.157,250.825 123.594 C 251.361 123.312,251.890 122.972,252.000 122.840 C 252.393 122.368,254.000 121.600,254.595 121.600 C 254.928 121.600,255.200 121.449,255.200 121.264 C 255.200 121.079,255.965 120.702,256.900 120.425 C 257.835 120.148,258.913 119.760,259.295 119.561 C 259.677 119.362,260.442 119.200,260.995 119.200 C 261.548 119.200,262.000 119.020,262.000 118.800 C 262.000 118.259,275.466 118.259,275.800 118.800 C 275.936 119.020,276.566 119.200,277.200 119.200 C 277.834 119.200,278.464 119.380,278.600 119.600 C 278.736 119.820,279.199 120.000,279.629 120.000 C 280.059 120.000,280.723 120.163,281.105 120.363 C 281.487 120.563,283.150 121.405,284.800 122.236 C 286.450 123.067,288.038 123.983,288.329 124.273 C 288.619 124.563,289.020 124.800,289.218 124.800 C 289.870 124.800,296.400 131.742,296.400 132.435 C 296.400 132.694,296.715 133.197,297.100 133.553 C 297.936 134.326,299.600 137.444,299.600 138.238 C 299.600 138.547,299.780 138.800,300.000 138.800 C 300.220 138.800,300.400 139.250,300.400 139.800 C 300.400 140.350,300.580 140.800,300.800 140.800 C 301.020 140.800,301.200 141.340,301.200 142.000 C 301.200 142.660,301.380 143.200,301.600 143.200 C 301.820 143.200,302.000 144.089,302.000 145.176 C 302.000 146.263,302.180 147.264,302.400 147.400 C 302.625 147.539,302.800 149.471,302.800 151.824 C 302.800 154.341,302.641 156.000,302.400 156.000 C 302.180 156.000,302.000 156.799,302.000 157.776 C 302.000 158.753,301.820 159.664,301.600 159.800 C 301.380 159.936,301.200 160.566,301.200 161.200 C 301.200 161.834,301.020 162.464,300.800 162.600 C 300.580 162.736,300.400 163.197,300.400 163.624 C 300.400 164.051,300.220 164.400,300.000 164.400 C 299.780 164.400,299.600 164.745,299.600 165.167 C 299.600 165.588,299.375 166.014,299.100 166.112 C 296.745 166.953,300.370 167.065,304.000 166.263 C 315.084 163.815,326.981 167.748,335.754 176.760 L 338.908 180.000 346.454 180.000 C 351.218 180.000,354.000 179.853,354.000 179.600 C 354.000 179.380,354.450 179.200,355.000 179.200 C 355.550 179.200,356.000 179.020,356.000 178.800 C 356.000 178.580,356.270 178.400,356.600 178.400 C 356.930 178.400,357.200 178.248,357.200 178.061 C 357.200 177.875,357.560 177.307,358.000 176.800 C 358.502 176.222,358.800 175.303,358.800 174.339 C 358.800 173.492,358.980 172.800,359.200 172.800 C 359.465 172.800,359.600 148.267,359.600 100.000 C 359.600 59.224,359.448 27.200,359.253 27.200 C 359.063 27.200,358.820 25.391,358.713 23.180 C 358.606 20.947,358.315 18.955,358.060 18.700 C 357.807 18.447,357.600 17.956,357.600 17.609 C 357.600 16.803,355.418 12.568,354.195 11.000 C 352.733 9.126,350.557 6.800,350.265 6.800 C 350.120 6.800,349.259 6.080,348.352 5.200 C 347.445 4.320,346.455 3.600,346.152 3.600 C 345.848 3.600,345.600 3.420,345.600 3.200 C 345.600 2.980,345.240 2.800,344.800 2.800 C 344.360 2.800,344.000 2.620,344.000 2.400 C 344.000 2.180,343.640 2.000,343.200 2.000 C 342.760 2.000,342.400 1.820,342.400 1.600 C 342.400 1.380,341.875 1.200,341.233 1.200 C 340.592 1.200,339.992 0.975,339.900 0.700 C 339.768 0.303,323.250 0.178,259.467 0.095 L 179.200 -0.010 179.202 25.495 M55.314 151.800 C 55.317 152.900,55.395 153.303,55.487 152.695 C 55.579 152.086,55.577 151.186,55.482 150.695 C 55.387 150.203,55.311 150.700,55.314 151.800 M13.500 179.500 C 21.035 179.561,33.365 179.561,40.900 179.500 C 48.435 179.439,42.270 179.389,27.200 179.389 C 12.130 179.389,5.965 179.439,13.500 179.500 M220.299 240.926 C 220.353 245.147,220.443 254.464,220.499 261.630 L 220.600 274.660 221.564 276.066 C 223.394 278.735,226.883 280.193,229.200 279.255 C 230.033 278.918,229.772 278.846,227.638 278.825 C 225.534 278.805,224.837 278.618,223.743 277.784 C 221.332 275.945,221.417 276.708,221.200 254.800 C 221.077 242.425,220.845 234.339,220.600 233.926 C 220.326 233.465,220.231 235.670,220.299 240.926 " stroke="none" fill="#945ca4" fill-rule="evenodd"></path><path id="path1" d="M303.800 166.281 C 302.480 166.598,300.455 166.842,299.300 166.822 C 298.123 166.803,297.200 166.966,297.200 167.194 C 297.200 167.417,296.750 167.600,296.200 167.600 C 295.650 167.600,295.200 167.780,295.200 168.000 C 295.200 168.220,294.880 168.400,294.488 168.400 C 294.097 168.400,293.517 168.760,293.200 169.200 C 292.883 169.640,292.303 170.000,291.912 170.000 C 291.520 170.000,291.200 170.180,291.200 170.400 C 291.200 170.620,290.829 170.800,290.376 170.800 C 289.923 170.800,289.664 170.980,289.800 171.200 C 289.936 171.420,289.839 171.600,289.584 171.600 C 289.329 171.600,288.617 172.140,288.000 172.800 C 287.383 173.460,286.750 174.000,286.593 174.000 C 286.250 174.000,282.401 177.990,282.398 178.348 C 282.397 178.487,281.902 179.145,281.298 179.812 C 280.694 180.478,280.141 181.288,280.070 181.612 C 279.998 181.935,279.773 182.260,279.570 182.333 C 279.366 182.407,279.200 182.812,279.200 183.233 C 279.200 183.655,279.020 184.000,278.800 184.000 C 278.580 184.000,278.400 184.253,278.400 184.562 C 278.400 184.871,278.052 185.816,277.627 186.662 C 274.437 193.010,274.451 206.611,277.654 213.375 C 278.064 214.241,278.400 215.186,278.400 215.475 C 278.400 215.764,278.580 216.000,278.800 216.000 C 279.020 216.000,279.200 216.360,279.200 216.800 C 279.200 217.240,279.344 217.600,279.520 217.600 C 279.964 217.600,280.800 220.034,280.800 221.328 C 280.800 221.918,280.620 222.400,280.400 222.400 C 280.180 222.400,280.000 222.672,280.000 223.003 C 280.000 223.880,277.989 226.000,277.157 226.000 C 276.767 226.000,276.336 226.180,276.200 226.400 C 276.039 226.660,266.996 226.800,250.376 226.800 C 233.592 226.800,224.800 226.938,224.800 227.200 C 224.800 227.420,224.509 227.600,224.154 227.600 C 223.208 227.600,220.800 230.401,220.800 231.502 C 220.800 232.030,220.624 232.338,220.400 232.200 C 219.863 231.868,219.903 232.298,220.588 234.200 C 221.059 235.507,221.168 239.338,221.182 255.120 C 221.202 276.388,221.138 275.820,223.700 277.727 C 225.102 278.771,232.400 279.668,232.400 278.796 C 232.400 278.578,232.940 278.400,233.600 278.400 C 234.260 278.400,234.800 278.220,234.800 278.000 C 234.800 277.780,235.239 277.600,235.776 277.600 C 236.313 277.600,236.864 277.420,237.000 277.200 C 237.143 276.968,239.330 276.800,242.200 276.800 C 245.070 276.800,247.257 276.968,247.400 277.200 C 247.536 277.420,248.267 277.600,249.024 277.600 C 249.781 277.600,250.400 277.780,250.400 278.000 C 250.400 278.220,250.940 278.400,251.600 278.400 C 252.260 278.400,252.800 278.580,252.800 278.800 C 252.800 279.020,253.135 279.200,253.544 279.200 C 254.456 279.200,259.200 281.605,259.200 282.067 C 259.200 282.250,259.380 282.400,259.599 282.400 C 259.819 282.400,260.763 283.120,261.697 284.000 C 262.631 284.880,263.540 285.600,263.716 285.600 C 264.138 285.600,266.000 287.470,266.000 287.894 C 266.000 288.075,266.360 288.483,266.800 288.800 C 267.240 289.117,267.600 289.617,267.600 289.912 C 267.600 290.206,267.780 290.336,268.000 290.200 C 268.220 290.064,268.400 290.233,268.400 290.576 C 268.400 290.919,268.580 291.200,268.800 291.200 C 269.020 291.200,269.200 291.455,269.200 291.767 C 269.200 292.078,269.366 292.393,269.570 292.467 C 269.773 292.540,269.998 292.870,270.070 293.200 C 270.141 293.530,270.515 294.091,270.900 294.447 C 271.285 294.803,271.600 295.377,271.600 295.723 C 271.600 296.070,271.780 296.464,272.000 296.600 C 272.220 296.736,272.400 297.287,272.400 297.824 C 272.400 298.361,272.580 298.800,272.800 298.800 C 273.020 298.800,273.200 299.250,273.200 299.800 C 273.200 300.350,273.380 300.800,273.600 300.800 C 273.820 300.800,274.000 301.531,274.000 302.424 C 274.000 303.404,274.158 303.949,274.400 303.800 C 274.661 303.639,274.800 305.863,274.800 310.176 C 274.800 314.325,274.651 316.800,274.400 316.800 C 274.180 316.800,274.000 317.520,274.000 318.400 C 274.000 319.280,273.820 320.000,273.600 320.000 C 273.380 320.000,273.200 320.540,273.200 321.200 C 273.200 321.860,273.020 322.400,272.800 322.400 C 272.580 322.400,272.400 322.760,272.400 323.200 C 272.400 323.640,272.220 324.000,272.000 324.000 C 271.780 324.000,271.600 324.360,271.600 324.800 C 271.600 325.240,271.420 325.600,271.200 325.600 C 270.980 325.600,270.800 325.971,270.800 326.424 C 270.800 326.877,270.620 327.136,270.400 327.000 C 270.180 326.864,270.000 327.043,270.000 327.398 C 270.000 327.753,269.461 328.619,268.802 329.322 C 268.143 330.025,267.603 330.735,267.602 330.900 C 267.599 331.381,261.721 337.200,261.239 337.200 C 260.997 337.200,260.800 337.380,260.800 337.600 C 260.800 337.820,260.530 338.000,260.200 338.000 C 259.870 338.000,259.600 338.180,259.600 338.400 C 259.600 338.620,259.412 338.800,259.183 338.800 C 258.954 338.800,258.380 339.160,257.908 339.600 C 257.436 340.040,256.768 340.406,256.425 340.413 C 256.081 340.420,255.458 340.684,255.041 341.000 C 254.624 341.316,254.129 341.480,253.941 341.364 C 253.753 341.248,253.600 341.320,253.600 341.525 C 253.600 341.730,252.844 342.019,251.920 342.166 C 250.996 342.314,250.045 342.597,249.806 342.795 C 249.568 342.992,248.514 343.199,247.463 343.253 C 246.413 343.307,245.463 343.498,245.353 343.676 C 245.096 344.092,237.711 344.103,237.454 343.687 C 237.348 343.515,236.704 343.332,236.024 343.281 C 235.343 343.229,233.761 342.919,232.509 342.593 C 226.761 341.096,220.800 342.818,220.800 345.976 C 220.800 346.455,220.625 346.739,220.412 346.607 C 220.163 346.453,220.017 355.102,220.006 370.757 C 219.995 386.833,220.127 395.231,220.394 395.396 C 220.617 395.534,220.800 395.997,220.800 396.424 C 220.800 396.851,220.980 397.200,221.200 397.200 C 221.420 397.200,221.600 397.560,221.600 398.000 C 221.600 398.461,221.867 398.800,222.229 398.800 C 222.574 398.800,223.130 399.073,223.463 399.406 C 224.292 400.234,381.224 400.129,381.500 399.300 C 381.592 399.025,382.192 398.800,382.833 398.800 C 383.475 398.800,384.000 398.620,384.000 398.400 C 384.000 398.180,384.360 398.000,384.800 398.000 C 385.240 398.000,385.600 397.820,385.600 397.600 C 385.600 397.380,385.960 397.200,386.400 397.200 C 386.840 397.200,387.200 397.020,387.200 396.800 C 387.200 396.580,387.378 396.400,387.595 396.400 C 388.025 396.400,389.111 395.570,390.735 394.000 C 391.304 393.450,391.912 393.045,392.085 393.100 C 392.258 393.155,392.355 392.975,392.300 392.700 C 392.245 392.425,392.425 392.245,392.700 392.300 C 392.975 392.355,393.155 392.258,393.100 392.085 C 393.045 391.912,393.450 391.304,394.000 390.735 C 395.570 389.111,396.400 388.025,396.400 387.595 C 396.400 387.378,396.580 387.200,396.800 387.200 C 397.020 387.200,397.200 386.840,397.200 386.400 C 397.200 385.960,397.380 385.600,397.600 385.600 C 397.820 385.600,398.000 385.240,398.000 384.800 C 398.000 384.360,398.180 384.000,398.400 384.000 C 398.620 384.000,398.800 383.475,398.800 382.833 C 398.800 382.192,399.025 381.592,399.300 381.500 C 399.698 381.367,399.800 365.831,399.800 305.600 C 399.800 245.369,399.698 229.833,399.300 229.700 C 399.025 229.608,398.800 229.278,398.800 228.967 C 398.800 228.655,398.534 228.400,398.210 228.400 C 397.885 228.400,397.030 228.041,396.310 227.601 C 395.038 226.826,394.279 226.803,370.149 226.801 C 348.161 226.800,345.119 226.725,343.749 226.153 C 342.897 225.797,342.159 225.572,342.108 225.653 C 341.092 227.276,340.017 219.625,340.998 217.746 C 341.326 217.116,341.596 216.285,341.598 215.900 C 341.599 215.515,341.780 215.200,342.000 215.200 C 342.220 215.200,342.400 214.840,342.400 214.400 C 342.400 213.960,342.580 213.600,342.800 213.600 C 343.020 213.600,343.200 213.060,343.200 212.400 C 343.200 211.740,343.380 211.200,343.600 211.200 C 343.820 211.200,344.000 210.660,344.000 210.000 C 344.000 209.340,344.180 208.800,344.400 208.800 C 344.620 208.800,344.800 207.821,344.800 206.624 C 344.800 205.427,344.980 204.336,345.200 204.200 C 345.423 204.062,345.600 202.204,345.600 200.000 C 345.600 197.796,345.423 195.938,345.200 195.800 C 344.980 195.664,344.800 194.573,344.800 193.376 C 344.800 192.179,344.620 191.200,344.400 191.200 C 344.180 191.200,344.000 190.660,344.000 190.000 C 344.000 189.340,343.820 188.800,343.600 188.800 C 343.380 188.800,343.200 188.260,343.200 187.600 C 343.200 186.940,343.020 186.400,342.800 186.400 C 342.580 186.400,342.400 186.040,342.400 185.600 C 342.400 185.160,342.240 184.800,342.045 184.800 C 341.849 184.800,341.572 184.179,341.430 183.420 C 341.275 182.595,340.612 181.507,339.783 180.720 C 339.020 179.994,337.091 178.076,335.498 176.457 C 326.939 167.766,314.389 163.737,303.800 166.281 " stroke="none" fill="#3c94d3" fill-rule="evenodd"></path><path id="path2" d="M20.200 0.291 C 19.540 0.385,18.829 0.628,18.620 0.831 C 18.411 1.034,17.826 1.200,17.320 1.200 C 16.814 1.200,16.400 1.380,16.400 1.600 C 16.400 1.820,16.085 2.004,15.700 2.009 C 15.315 2.014,14.550 2.370,14.000 2.800 C 13.450 3.230,12.867 3.586,12.705 3.591 C 11.738 3.620,3.620 11.738,3.591 12.705 C 3.586 12.867,3.230 13.450,2.800 14.000 C 2.370 14.550,2.014 15.315,2.009 15.700 C 2.004 16.085,1.820 16.400,1.600 16.400 C 1.380 16.400,1.200 16.814,1.200 17.320 C 1.200 17.826,0.975 18.465,0.700 18.740 C 0.304 19.136,0.178 35.884,0.094 99.228 L -0.012 179.216 28.294 179.108 L 56.600 179.000 57.909 178.066 C 61.209 175.713,61.520 172.654,59.015 167.190 C 51.425 150.632,55.997 133.321,70.632 123.204 C 72.226 122.102,73.631 121.200,73.754 121.200 C 73.876 121.200,74.995 120.734,76.240 120.165 C 79.075 118.868,81.661 118.189,86.174 117.558 C 95.261 116.287,106.476 120.131,113.539 126.938 C 115.346 128.680,120.400 135.494,120.400 136.189 C 120.400 136.310,120.739 137.172,121.153 138.104 C 125.214 147.254,124.932 157.424,120.350 167.061 C 117.924 172.165,118.262 175.433,121.468 177.879 L 122.937 179.000 151.058 179.108 L 179.178 179.216 179.289 152.878 L 179.400 126.541 180.393 125.092 C 182.549 121.946,185.610 121.317,191.096 122.891 C 208.755 127.958,229.194 116.046,233.182 98.362 C 233.450 97.173,233.834 95.549,234.035 94.754 C 234.541 92.750,234.492 87.136,233.943 84.224 C 230.055 63.592,211.272 51.633,190.600 56.628 C 185.437 57.876,183.555 57.635,181.365 55.445 C 179.221 53.301,179.205 53.079,179.202 25.500 L 179.200 0.000 100.300 0.060 C 56.905 0.093,20.860 0.197,20.200 0.291 M31.476 28.949 C 34.613 30.977,34.400 27.057,34.400 82.812 C 34.400 131.566,34.386 132.459,33.604 133.993 C 31.169 138.765,25.084 139.125,21.916 134.684 L 21.000 133.400 20.882 84.200 C 20.817 57.140,20.876 34.216,21.013 33.259 C 21.669 28.663,27.390 26.306,31.476 28.949 " stroke="none" fill="#4bbb6b" fill-rule="evenodd"></path><path id="path3" d="M84.800 117.825 C 61.070 121.887,48.885 145.471,59.186 167.400 C 61.612 172.565,61.257 175.629,57.944 178.102 C 56.101 179.478,53.960 179.581,26.894 179.590 L -0.012 179.600 0.094 256.267 C 0.178 317.169,0.303 332.968,0.700 333.100 C 0.975 333.192,1.200 333.792,1.200 334.433 C 1.200 335.075,1.380 335.600,1.600 335.600 C 1.820 335.600,2.000 335.960,2.000 336.400 C 2.000 336.840,2.180 337.200,2.400 337.200 C 2.620 337.200,2.800 337.560,2.800 338.000 C 2.800 338.440,2.936 338.800,3.102 338.800 C 3.269 338.800,3.640 339.331,3.927 339.981 C 4.215 340.631,4.799 341.273,5.225 341.408 C 5.651 341.543,6.000 341.877,6.000 342.149 C 6.000 342.686,8.527 345.600,8.993 345.600 C 9.151 345.600,9.783 346.140,10.400 346.800 C 11.017 347.460,11.809 348.000,12.160 348.000 C 12.512 348.000,12.800 348.180,12.800 348.400 C 12.800 348.620,13.078 348.800,13.417 348.800 C 13.756 348.800,14.420 349.160,14.892 349.600 C 15.364 350.040,16.167 350.400,16.675 350.400 C 17.184 350.400,17.600 350.580,17.600 350.800 C 17.600 351.020,18.129 351.200,18.776 351.200 C 19.423 351.200,20.064 351.380,20.200 351.600 C 20.336 351.820,21.607 352.000,23.024 352.000 C 24.475 352.000,25.600 352.175,25.600 352.400 C 25.600 352.665,50.533 352.800,99.600 352.800 C 148.667 352.800,173.600 352.665,173.600 352.400 C 173.600 352.180,174.140 352.000,174.800 352.000 C 175.460 352.000,176.000 351.820,176.000 351.600 C 176.000 351.380,176.283 351.200,176.629 351.200 C 177.437 351.200,178.400 350.237,178.400 349.429 C 178.400 349.083,178.580 348.800,178.800 348.800 C 179.020 348.800,179.200 348.440,179.200 348.000 C 179.200 347.560,179.380 347.200,179.600 347.200 C 179.862 347.200,180.000 339.000,180.000 323.400 C 180.000 307.800,180.138 299.600,180.400 299.600 C 180.620 299.600,180.800 299.324,180.800 298.987 C 180.800 298.191,183.391 295.600,184.187 295.600 C 184.524 295.600,184.800 295.420,184.800 295.200 C 184.800 294.980,185.520 294.800,186.400 294.800 C 187.280 294.800,188.000 294.980,188.000 295.200 C 188.000 295.420,188.619 295.600,189.376 295.600 C 190.133 295.600,190.864 295.780,191.000 296.000 C 191.136 296.220,191.856 296.400,192.600 296.400 C 193.344 296.400,194.064 296.580,194.200 296.800 C 194.346 297.036,196.730 297.200,200.000 297.200 C 203.270 297.200,205.654 297.036,205.800 296.800 C 205.936 296.580,206.847 296.400,207.824 296.400 C 208.801 296.400,209.600 296.220,209.600 296.000 C 209.600 295.780,210.140 295.600,210.800 295.600 C 211.460 295.600,212.000 295.420,212.000 295.200 C 212.000 294.980,212.540 294.800,213.200 294.800 C 213.860 294.800,214.400 294.620,214.400 294.400 C 214.400 294.180,214.760 294.000,215.200 294.000 C 215.640 294.000,216.000 293.820,216.000 293.600 C 216.000 293.380,216.360 293.200,216.800 293.200 C 217.240 293.200,217.600 293.033,217.600 292.829 C 217.600 292.625,218.320 292.140,219.200 291.752 C 220.080 291.364,220.800 290.901,220.800 290.723 C 220.800 290.545,221.045 290.400,221.344 290.400 C 221.924 290.400,228.400 283.720,228.400 283.122 C 228.400 282.926,228.760 282.380,229.200 281.908 C 229.640 281.436,230.000 280.813,230.000 280.525 C 230.000 280.236,230.180 280.000,230.400 280.000 C 230.620 280.000,230.800 279.844,230.800 279.653 C 230.800 279.462,229.572 279.327,228.071 279.353 C 224.953 279.407,223.272 278.558,221.564 276.066 L 220.600 274.660 220.378 253.630 C 220.255 242.064,220.120 232.555,220.078 232.500 C 220.035 232.445,219.680 232.400,219.288 232.400 C 218.897 232.400,218.317 232.040,218.000 231.600 C 217.683 231.160,217.199 230.800,216.924 230.800 C 216.649 230.800,215.783 230.440,215.000 230.000 C 214.217 229.560,213.221 229.200,212.788 229.200 C 212.355 229.200,212.000 229.020,212.000 228.800 C 212.000 228.580,211.460 228.400,210.800 228.400 C 210.140 228.400,209.600 228.220,209.600 228.000 C 209.600 227.780,208.891 227.600,208.024 227.600 C 207.157 227.600,206.336 227.420,206.200 227.200 C 206.053 226.962,203.537 226.800,200.000 226.800 C 196.463 226.800,193.947 226.962,193.800 227.200 C 193.664 227.420,192.843 227.600,191.976 227.600 C 191.109 227.600,190.400 227.780,190.400 228.000 C 190.400 228.220,189.806 228.400,189.080 228.400 C 188.354 228.400,187.549 228.611,187.292 228.868 C 186.254 229.906,180.800 226.858,180.800 225.240 C 180.800 224.998,180.621 224.800,180.403 224.800 C 180.147 224.800,179.970 216.838,179.903 202.300 L 179.800 179.800 151.800 179.600 C 121.053 179.380,122.622 179.522,120.259 176.760 C 118.203 174.359,118.197 171.707,120.236 167.302 C 123.095 161.125,123.789 158.089,123.780 151.800 C 123.770 145.314,123.266 142.927,120.713 137.253 C 116.862 128.698,107.310 120.540,99.000 118.708 C 92.174 117.203,89.430 117.032,84.800 117.825 " stroke="none" fill="#e24b3b" fill-rule="evenodd"></path><path id="path4" d="M11.029 4.229 C 10.605 4.538,10.336 4.869,10.430 4.963 C 10.524 5.057,10.948 4.881,11.371 4.571 C 11.795 4.262,12.064 3.931,11.970 3.837 C 11.876 3.743,11.452 3.919,11.029 4.229 M7.260 7.442 C 6.531 8.266,7.000 8.657,7.781 7.876 C 8.121 7.536,8.400 7.154,8.400 7.029 C 8.400 6.609,7.806 6.824,7.260 7.442 M4.093 11.200 C 3.818 11.640,3.731 12.000,3.900 12.000 C 4.069 12.000,4.432 11.640,4.707 11.200 C 4.982 10.760,5.069 10.400,4.900 10.400 C 4.731 10.400,4.368 10.760,4.093 11.200 M25.859 27.882 C 24.016 28.171,21.311 31.173,21.013 33.259 C 20.876 34.216,20.817 57.140,20.882 84.200 L 21.000 133.400 21.916 134.684 C 25.084 139.125,31.169 138.765,33.604 133.993 C 34.860 131.530,34.853 34.148,33.596 31.496 C 32.312 28.786,29.241 27.352,25.859 27.882 " stroke="none" fill="#2aaa5c" fill-rule="evenodd"></path></g></svg>